<svg xmlns="http://www.w3.org/2000/svg" version="1.1" xmlns:xlink="http://www.w3.org/1999/xlink" xmlns:svgjs="http://svgjs.dev/svgjs" width="1000" height="1000" viewBox="0 0 1000 1000"><rect width="1000" height="1000" fill="#282634"></rect><g transform="matrix(0.7,0,0,0.7,149.57575757575756,282.1265587044535)"><svg viewBox="0 0 396 247" data-background-color="#282634" preserveAspectRatio="xMidYMid meet" height="623" width="1000" xmlns="http://www.w3.org/2000/svg" xmlns:xlink="http://www.w3.org/1999/xlink"><g id="tight-bounds" transform="matrix(1,0,0,1,0.2400000000000091,-0.09999999999999432)"><svg viewBox="0 0 395.52 247.2" height="247.2" width="395.52"><g><svg></svg></g><g><svg viewBox="0 0 395.52 247.2" height="247.2" width="395.52"><g transform="matrix(1,0,0,1,75.54432,99.5965754164613)"><svg viewBox="0 0 244.43135999999998 48.00684916707737" height="48.00684916707737" width="244.43135999999998"><g><svg viewBox="0 0 244.43135999999998 48.00684916707737" height="48.00684916707737" width="244.43135999999998"><g><svg viewBox="0 0 244.43135999999998 48.00684916707737" height="48.00684916707737" width="244.43135999999998"><g><svg viewBox="0 0 244.43135999999998 48.00684916707737" height="48.00684916707737" width="244.43135999999998"><g><svg viewBox="0 0 244.43135999999998 48.00684916707737" height="48.00684916707737" width="244.43135999999998"><g><svg viewBox="0 0 244.43135999999998 48.00684916707737" height="48.00684916707737" width="244.43135999999998"><g transform="matrix(1,0,0,1,0,0)"><svg width="244.43135999999998" viewBox="-0.9800000190734863 -37.5 198.12998962402344 38.91999816894531" height="48.00684916707737" data-palette-color="#ff4057"><path d="M18.95-35.3L18.95-35.3 21.63-34.47Q21.19-33.64 19.46-29.81 17.72-25.98 15.67-21.92 13.62-17.87 11.67-14.79L11.67-14.79Q11.87-12.4 11.91-7.37 11.96-2.34 12.11-0.15L12.11-0.15Q11.67-0.05 9.86-0.05L9.86-0.05Q8.15-0.05 7.81-0.15L7.81-0.15Q7.96-2.25 8.03-7.35 8.11-12.45 8.3-14.79L8.3-14.79Q5.86-18.85 2.86-26.12-0.15-33.4-0.98-35.11L-0.98-35.11 2.29-35.35 10.01-18.75Q10.89-20.31 14.04-26.51 17.19-32.71 18.95-35.3ZM19.04-10.4L19.04-10.4Q19.04-12.35 19.46-14.75 19.87-17.14 20.7-19.78 21.53-22.41 23.19-24.17 24.85-25.93 27.05-25.93L27.05-25.93Q31.74-25.93 34.57-21.7 37.4-17.48 37.4-12.3L37.4-12.3Q37.4-10.11 36.94-7.93 36.47-5.76 35.5-3.66 34.52-1.56 32.69-0.17 30.86 1.22 28.42 1.42L28.42 1.42Q23.92 0.83 21.48-2.42 19.04-5.66 19.04-10.4ZM27.34-23.39L27.34-23.39Q25.63-23.19 24.46-20.26 23.29-17.33 22.95-14.58 22.6-11.82 22.6-9.72L22.6-9.72Q22.6-6.98 24.29-4.66 25.97-2.34 28.07-2.34L28.07-2.34Q29.59-2.34 30.81-3.52 32.03-4.69 32.74-6.42 33.44-8.15 33.81-9.91 34.18-11.67 34.18-13.04L34.18-13.04Q34.18-17.04 32.37-20.02 30.56-23 27.34-23.39ZM55.85-24.51L55.85-24.51 58.2-24.07 58.2-23.58Q58.2-20.26 58.61-12.35 59.03-4.44 59.37-0.15L59.37-0.15Q58.39 0.24 57.51 0.24L57.51 0.24Q56.73 0.24 55.76 0L55.76 0 55.37-1.27Q52.24 0.49 49.41 0.49L49.41 0.49Q47.31 0.49 45.77-0.49 44.23-1.46 43.4-2.91 42.57-4.35 42.08-6.47 41.6-8.59 41.47-10.33 41.35-12.06 41.35-14.21L41.35-14.21Q41.35-20.46 42.13-25.68L42.13-25.68 44.33-25.2Q44.67-23.58 44.67-21.68L44.67-21.68Q44.67-20.61 44.55-17.97 44.43-15.33 44.43-13.96L44.43-13.96Q44.43-11.57 44.65-9.84 44.87-8.11 45.48-6.47 46.09-4.83 47.36-3.96 48.63-3.08 50.53-3.08L50.53-3.08Q52.68-3.08 55.17-4.05L55.17-4.05Q55.27-5.86 55.37-13.31 55.46-20.75 55.85-24.51ZM76.65-2.78L76.65-2.78 77.33-5.52Q81.58-3.22 85.68-3.22L85.68-3.22Q88.61-3.22 90.69-4.42 92.76-5.62 92.76-8.3L92.76-8.3Q92.76-10.69 91.01-12.67 89.25-14.65 86.76-16.16 84.27-17.68 81.78-19.26 79.29-20.85 77.53-23.17 75.77-25.49 75.77-28.32L75.77-28.32Q75.77-31.79 78.26-34.64 80.75-37.5 84.27-37.5L84.27-37.5Q86.95-37.5 90.25-36.43 93.54-35.35 95.79-34.28L95.79-34.28 95.2-32.32Q89.64-34.23 85.83-34.23L85.83-34.23Q83.49-34.23 81.83-32.71 80.17-31.2 80.17-28.81L80.17-28.81Q80.17-27 81.09-25.54 82.02-24.07 83.51-23 85-21.92 86.83-20.9 88.66-19.87 90.47-18.7 92.28-17.53 93.76-16.16 95.25-14.79 96.18-12.72 97.11-10.64 97.11-8.06L97.11-8.06Q97.11-4.39 94.77-2.08 92.42 0.24 88.66 0.24L88.66 0.24Q85.44 0.24 81.8-0.66 78.16-1.56 76.65-2.78ZM119.27-4.74L119.27-4.74 119.76-2.59Q117.61-1.81 113.39-0.85 109.17 0.1 107.12 0.1L107.12 0.1Q105.02 0.1 103.45-1.29 101.89-2.69 101.11-4.86 100.33-7.03 99.96-9.16 99.6-11.28 99.6-13.33L99.6-13.33Q99.6-25.54 110.63-25.54L110.63-25.54Q113.27-25.54 115.27-23.85 117.27-22.17 117.27-19.48L117.27-19.48Q117.27-18.02 116.47-16.89 115.66-15.77 114.51-15.11 113.37-14.45 111.58-13.92 109.8-13.38 108.43-13.13 107.07-12.89 105.16-12.6 103.26-12.3 102.53-12.16L102.53-12.16Q102.58-10.74 102.7-9.67 102.82-8.59 103.19-7.35 103.55-6.1 104.16-5.3 104.77-4.49 105.85-3.96 106.92-3.42 108.39-3.42L108.39-3.42Q110.14-3.42 112.68-3.74 115.22-4.05 117.2-4.39 119.18-4.74 119.27-4.74ZM102.72-15.19L102.72-15.19Q109.36-17.09 113.61-19.19L113.61-19.19Q113.27-20.8 112.68-21.53 112.1-22.27 110.93-22.27L110.93-22.27Q107.95-22.27 105.53-20.21 103.11-18.16 102.72-15.19ZM123.47-21.09L123.47-21.09 122.49-23.58Q123.76-24.85 125.72-25.61 127.67-26.37 129.57-26.37L129.57-26.37Q137.83-26.37 137.83-12.11L137.83-12.11Q137.83-10.16 137.61-6.35 137.39-2.54 137.39-0.63L137.39-0.63Q137 0.88 135.87 0.88L135.87 0.88Q134.99 0.88 134.26 0 133.53-0.88 133.53-1.95L133.53-1.95Q133.53-2.29 133.58-2.44L133.58-2.44Q130.55 0.49 127.13 0.49L127.13 0.49Q124.55 0.49 122.62-1.39 120.69-3.27 120.69-5.96L120.69-5.96Q120.69-10.5 124.23-14.16 127.77-17.82 132.26-17.82L132.26-17.82Q132.46-17.82 132.65-17.8 132.85-17.77 133.11-17.72 133.38-17.68 133.53-17.68L133.53-17.68Q133.14-23.39 128.99-23.39L128.99-23.39Q126.55-23.39 123.47-21.09ZM133.68-5.81L133.68-5.81Q133.77-9.23 133.77-10.99L133.77-10.99Q133.77-12.45 133.68-15.09L133.68-15.09 133.29-15.09Q129.82-15.04 126.96-12.5 124.11-9.96 124.11-6.35L124.11-6.35Q124.11-4.79 125.06-3.86 126.01-2.93 127.38-2.93L127.38-2.93Q129.53-2.93 133.68-5.81ZM157.89-18.6L157.89-18.6 155.74-18.75Q154.72-21.48 152.28-21.48L152.28-21.48Q151.2-21.48 150.01-21 148.81-20.51 148.03-20 147.25-19.48 145.98-18.51L145.98-18.51Q145.98-17.82 145.95-14.06 145.93-10.3 146-5.71 146.08-1.12 146.17-0.78L146.17-0.78Q145.73 0.68 144.46 0.68L144.46 0.68Q143.59 0.68 142.78-0.02 141.97-0.73 141.78-1.76L141.78-1.76Q142.71-17.43 143.44-25.44L143.44-25.44 145.64-24.95 145.78-21.68Q149.2-24.51 151.64-24.51L151.64-24.51Q154.33-24.51 156.16-23.29 157.99-22.07 157.99-19.73L157.99-19.73Q157.99-18.99 157.89-18.6ZM176.4-24.22L176.4-24.22 176.15-22.12Q174.1-22.41 172.64-22.41L172.64-22.41Q169.27-22.41 167.07-20.39 164.87-18.36 164.07-15.6 163.26-12.84 163.26-9.47L163.26-9.47Q163.26-7.91 163.46-6.69 163.65-5.47 164.16-4.3 164.68-3.13 165.78-2.47 166.87-1.81 168.49-1.81L168.49-1.81Q170.63-1.81 173.95-2.64L173.95-2.64Q174.98-3.03 175.57-3.03L175.57-3.03Q176.74-3.03 176.98-0.29L176.98-0.29Q172.69 1.07 169.02 1.07L169.02 1.07Q163.7 1.07 161.82-1.54 159.94-4.15 159.94-10.01L159.94-10.01Q159.94-13.43 160.4-15.99 160.87-18.55 162.04-20.78 163.21-23 165.43-24.17 167.66-25.34 170.88-25.34L170.88-25.34Q174.49-25.34 176.4-24.22ZM179.71-35.16L179.71-35.16 182.25-34.57Q182.4-32.57 182.47-28.17 182.55-23.78 182.64-22.12L182.64-22.12Q185.28-24.9 188.99-24.9L188.99-24.9Q192.31-24.9 194.73-22.56 197.15-20.21 197.15-16.31L197.15-16.31 197.15-0.24Q196.51 0.05 195.53 0.05L195.53 0.05Q194.46 0.05 193.58-0.15L193.58-0.15Q193.58-0.54 193.61-1.34 193.63-2.15 193.63-2.54L193.63-2.54Q193.63-4.44 193.48-9.11 193.34-13.77 193.34-16.89L193.34-16.89Q192.6-21.39 188.8-21.39L188.8-21.39Q187.14-21.39 185.52-20.48 183.91-19.58 183.18-18.36L183.18-18.36Q183.33-15.28 183.38-9.08 183.42-2.88 183.52-0.15L183.52-0.15Q182.35 0.05 181.52 0.05L181.52 0.05Q180.3 0.05 179.47-0.24L179.47-0.24Q179.57-2.64 179.57-7.81L179.57-7.81Q179.57-10.11 179.52-16.24 179.47-22.36 179.49-26.78 179.52-31.2 179.71-35.16Z" opacity="1" transform="matrix(1,0,0,1,0,0)" fill="#ff4057" class="undefined-text-0" data-fill-palette-color="primary" id="text-0"></path></svg></g></svg></g></svg></g></svg></g></svg></g></svg></g></svg></g><path d="M189.671 93.597L189.671 32.711 7.893 32.711 7.893 214.489 189.671 214.489 189.671 153.603 185.342 153.603 185.342 210.16 12.222 210.16 12.222 37.04 185.342 37.04 185.342 93.597Z" fill="#ff4057" stroke="transparent" data-fill-palette-color="primary"></path></svg></g><defs></defs></svg><rect width="395.52" height="247.2" fill="none" stroke="none" visibility="hidden"></rect></g></svg></g></svg>